<?xml version="1.0" standalone="no"?>
<!DOCTYPE svg PUBLIC "-//W3C//DTD SVG 20010904//EN"
 "http://www.w3.org/TR/2001/REC-SVG-20010904/DTD/svg10.dtd">
<svg version="1.0" xmlns="http://www.w3.org/2000/svg"
 width="500.000000pt" height="500.000000pt" viewBox="0 0 500.000000 500.000000"
 preserveAspectRatio="xMidYMid meet">

<g transform="translate(0.000000,500.000000) scale(0.100000,-0.100000)"
fill="#000000" stroke="none">
<path d="M4055 4065 c-43 -57 -64 -74 -155 -125 -58 -33 -117 -72 -131 -87
-25 -28 -239 -305 -272 -353 -10 -14 -17 -43 -17 -68 0 -36 5 -49 30 -72 17
-16 42 -30 56 -32 24 -3 26 -7 27 -59 2 -66 21 -93 76 -110 36 -11 36 -11 36
-65 0 -61 19 -87 77 -107 l36 -13 -79 -103 c-73 -95 -79 -107 -79 -150 1 -91
87 -141 163 -93 15 9 106 118 201 242 95 124 177 224 182 223 5 -1 13 -31 19
-66 6 -35 18 -75 27 -89 36 -55 123 -61 169 -12 21 22 25 39 30 127 4 56 8
212 8 346 l2 245 49 64 c28 36 50 70 50 77 0 13 -414 335 -440 342 -10 3 -34
-20 -65 -62z m258 -132 c106 -80 194 -148 196 -149 4 -4 -15 -32 -47 -73 l-20
-24 -128 98 c-71 55 -131 101 -134 104 -4 5 -116 89 -129 98 -4 2 60 93 66 93
2 0 91 -66 196 -147z m-235 -19 c31 -25 64 -51 73 -58 8 -7 42 -32 75 -56 32
-24 70 -54 84 -67 14 -13 33 -26 43 -29 9 -3 17 -9 17 -13 0 -3 13 -14 29 -24
l29 -17 -5 -332 c-6 -358 -8 -371 -58 -384 -68 -17 -99 20 -110 131 -8 78 -21
118 -34 113 -9 -3 -58 -66 -269 -343 -62 -82 -123 -158 -134 -167 -31 -27 -82
-23 -107 8 -30 38 -26 66 17 121 149 189 322 424 322 437 0 35 -29 10 -113
-99 -78 -102 -91 -115 -118 -115 -40 0 -68 16 -79 46 -14 35 0 62 86 174 52
67 74 105 70 116 -9 22 -24 9 -93 -83 -43 -58 -61 -74 -88 -79 -40 -7 -73 9
-86 43 -13 36 -4 58 62 144 33 42 59 81 59 87 0 27 -32 9 -67 -37 -21 -27 -50
-55 -65 -61 -62 -27 -129 42 -97 99 26 45 242 324 279 361 31 31 192 129 213
130 4 0 33 -21 65 -46z"/>
<path d="M3400 2935 c0 -15 183 -160 203 -160 31 0 4 31 -87 100 -54 41 -102
75 -107 75 -5 0 -9 -7 -9 -15z"/>
<path d="M3455 2664 c-121 -16 -145 -22 -145 -33 0 -17 27 -18 145 -2 98 13
120 19 123 34 2 9 -2 16 -10 16 -7 -1 -58 -7 -113 -15z"/>
<path d="M3865 2591 c-3 -6 -3 -15 0 -21 11 -18 189 -150 202 -150 30 0 8 29
-59 79 -40 30 -87 65 -105 78 -19 15 -34 20 -38 14z"/>
<path d="M3544 2459 c-56 -74 -73 -104 -65 -112 7 -7 14 -7 20 -2 33 37 151
197 151 205 0 31 -38 -2 -106 -91z"/>
<path d="M3747 2523 c-6 -11 28 -251 36 -260 4 -3 11 -2 17 3 8 8 -13 216 -25
252 -5 13 -21 16 -28 5z"/>
<path d="M3183 2272 l-73 -3 0 -374 0 -375 80 0 80 0 0 374 c0 206 -3 376 -7
378 -5 2 -41 2 -80 0z"/>
<path d="M270 2227 c-62 -18 -133 -79 -168 -144 -87 -164 -55 -418 65 -509 23
-18 39 -35 35 -40 -4 -4 -2 -4 4 -1 6 3 28 0 50 -8 77 -28 274 -13 310 22 16
17 17 123 1 123 -5 0 -37 -7 -71 -16 -78 -20 -167 -15 -203 12 -59 44 -87 163
-69 288 9 57 52 122 95 142 44 21 132 14 189 -15 l42 -22 11 28 c16 41 39 105
39 109 0 2 -30 12 -66 24 -73 22 -203 26 -264 7z"/>
<path d="M3482 2163 c-5 -10 -15 -34 -21 -54 -8 -24 -27 -47 -57 -69 -39 -28
-45 -36 -42 -64 3 -28 6 -31 35 -28 l31 3 4 -168 c3 -190 14 -223 78 -255 40
-20 143 -24 201 -8 36 10 36 10 35 66 l0 55 -61 -6 c-91 -10 -95 -4 -96 156
-1 71 -2 135 -3 142 -1 8 22 13 77 15 l77 3 0 54 0 55 -75 0 -75 0 0 60 0 60
-50 0 c-37 0 -52 -4 -58 -17z"/>
<path d="M814 2047 c-95 -46 -139 -129 -138 -262 0 -83 16 -137 56 -187 92
-117 319 -119 415 -4 74 91 81 263 13 369 -44 70 -104 100 -209 105 -75 3 -93
0 -137 -21z m163 -103 c13 -4 33 -22 45 -42 27 -44 30 -170 5 -219 -19 -36
-66 -58 -108 -49 -59 12 -83 56 -82 156 0 127 47 179 140 154z"/>
<path d="M1535 2054 c-16 -8 -40 -25 -52 -36 l-23 -21 -11 31 c-11 31 -12 32
-72 32 l-62 0 0 -270 0 -270 81 0 81 0 2 168 c1 95 7 181 13 199 18 50 91 78
138 53 31 -16 40 -75 40 -252 l0 -168 80 0 80 0 0 180 c0 98 -5 202 -11 230
-12 59 -49 107 -96 126 -44 19 -151 18 -188 -2z"/>
<path d="M2043 2059 c-52 -15 -100 -70 -105 -119 -8 -92 31 -144 149 -194 117
-51 136 -72 95 -109 -23 -21 -71 -21 -147 -1 -112 31 -102 34 -102 -35 l1 -61
54 -16 c77 -23 234 -16 281 11 53 31 74 67 79 134 6 88 -16 120 -124 171 -46
22 -88 40 -93 40 -13 0 -41 35 -41 52 0 34 70 37 150 8 30 -11 57 -20 60 -20
3 0 12 15 19 33 13 31 15 37 22 66 10 37 -209 66 -298 40z"/>
<path d="M3940 2055 c-58 -18 -93 -37 -82 -44 5 -3 19 -25 31 -49 17 -34 26
-42 39 -37 127 53 210 42 215 -30 l2 -30 -90 -6 c-49 -4 -108 -12 -130 -19
-22 -7 -41 -12 -43 -11 -10 6 -62 -76 -68 -106 -15 -80 21 -169 80 -197 71
-34 203 -13 245 38 19 23 28 20 40 -14 9 -28 13 -30 65 -30 l56 0 0 204 c0
121 -4 216 -11 233 -15 40 -48 73 -94 94 -49 23 -187 25 -255 4z m210 -310 c0
-93 -104 -161 -160 -105 -20 20 -26 65 -12 87 15 24 68 43 120 43 49 0 52 -1
52 -25z"/>
<path d="M4505 2051 c-22 -10 -50 -28 -62 -40 -40 -38 -43 -139 -5 -190 21
-28 18 -26 137 -84 71 -34 91 -48 93 -67 3 -15 -3 -29 -14 -37 -31 -22 -81
-17 -221 23 -22 6 -23 4 -23 -54 0 -82 9 -87 170 -87 111 0 130 3 168 23 100
54 109 205 15 268 -18 12 -63 34 -100 49 -85 35 -112 58 -97 83 20 32 95 27
195 -13 12 -4 21 7 37 46 12 28 19 55 16 60 -11 18 -111 39 -188 39 -58 0 -93
-6 -121 -19z"/>
<path d="M2461 1853 c1 -235 6 -261 63 -307 36 -29 43 -31 126 -31 83 0 91 2
134 32 25 18 47 28 47 23 1 -6 3 -14 4 -20 1 -5 3 -15 4 -20 1 -7 25 -10 64
-8 l62 3 3 268 2 267 -80 0 -80 0 0 -152 c0 -209 -16 -261 -86 -274 -42 -8
-71 2 -90 30 -12 19 -15 61 -15 210 l0 186 -80 0 -79 0 1 -207z"/>
</g>
</svg>
