<?xml version="1.0" standalone="no"?>
<!DOCTYPE svg PUBLIC "-//W3C//DTD SVG 20010904//EN"
 "http://www.w3.org/TR/2001/REC-SVG-20010904/DTD/svg10.dtd">
<svg version="1.0" xmlns="http://www.w3.org/2000/svg"
 width="215.000000pt" height="188.000000pt" viewBox="0 0 215.000000 188.000000"
 preserveAspectRatio="xMidYMid meet">

<g transform="translate(0.000000,188.000000) scale(0.100000,-0.100000)"
fill="#000000" stroke="none">
<path d="M450 1701 c-110 -36 -180 -130 -180 -241 0 -94 51 -179 135 -223 56
-30 164 -30 220 0 179 95 179 353 1 445 -43 22 -136 32 -176 19z"/>
<path d="M1600 1701 c-110 -36 -180 -130 -180 -241 0 -94 51 -179 135 -223 56
-30 164 -30 220 0 179 95 179 353 1 445 -43 22 -136 32 -176 19z"/>
<path d="M973 1292 c-128 -46 -203 -150 -203 -281 0 -118 61 -216 168 -268
118 -58 262 -28 351 73 96 109 96 279 0 388 -79 89 -210 126 -316 88z"/>
<path d="M317 1100 c-55 -14 -93 -36 -144 -83 -59 -54 -94 -126 -101 -203 -4
-53 -2 -64 17 -83 21 -21 28 -21 361 -21 l340 0 -37 48 c-20 26 -44 65 -54 87
-23 53 -42 161 -35 200 5 27 3 33 -21 45 -34 16 -271 23 -326 10z"/>
<path d="M1535 1104 c-65 -16 -76 -25 -69 -58 7 -40 -12 -148 -35 -201 -10
-22 -34 -61 -54 -87 l-37 -48 113 0 112 0 29 36 c38 48 80 64 171 64 91 0 133
-16 171 -64 34 -42 72 -48 105 -15 19 19 21 30 17 83 -7 78 -42 149 -103 205
-77 71 -119 85 -270 87 -71 2 -139 1 -150 -2z"/>
<path d="M1688 699 c-15 -8 -18 -25 -18 -99 l0 -90 -81 0 c-115 0 -119 -4
-119 -100 0 -96 4 -100 119 -100 l81 0 0 -90 c0 -105 5 -110 95 -110 90 0 95
5 95 110 l0 90 81 0 c115 0 119 4 119 100 0 96 -4 100 -119 100 l-81 0 0 90
c0 78 -2 91 -19 100 -25 13 -131 13 -153 -1z"/>
<path d="M785 596 c-80 -19 -142 -56 -201 -118 -69 -72 -104 -149 -111 -243
-5 -60 -3 -73 15 -95 l20 -25 532 -3 532 -3 -6 23 c-3 13 -6 35 -6 49 0 24 -4
27 -51 31 -53 5 -89 26 -123 72 -18 23 -21 42 -21 126 0 87 3 102 23 130 13
17 22 33 20 35 -2 2 -30 11 -63 20 -75 19 -482 20 -560 1z"/>
</g>
</svg>
